<?xml version="1.0" encoding="UTF-8"?>
<svg id="Layer_1" data-name="Layer 1" xmlns="http://www.w3.org/2000/svg" viewBox="0 0 64 64">
  <defs>
    <style>
      .cls-1 {
        fill: #c8c8cc;
        stroke-width: 0px;
      }
    </style>
  </defs>
  <path class="cls-1" d="m57.1,19.39c-.6-2.26-2.38-4.03-4.63-4.63-4.08-1.1-20.47-1.1-20.47-1.1,0,0-1.33,0-3.33.03-.02,0-7.4.03-7.62,1.23-.56,3.04,5.71,9.23,5.71,9.23l13.61,7.86-13.61,7.86v-15.71s4.35-7.6,4.58-9.91c.04-.42-3.49-.53-3.49-.53-5.14.08-13.54.32-16.3,1.06-2.26.6-4.03,2.38-4.63,4.63-1.1,4.08-1.1,12.61-1.1,12.61,0,0,0,8.53,1.1,12.61.6,2.26,2.38,4.03,4.63,4.63,4.08,1.1,20.47,1.1,20.47,1.1,0,0,16.38,0,20.47-1.1,2.26-.6,4.03-2.38,4.63-4.63,1.1-4.08,1.1-12.61,1.1-12.61,0,0,0-8.53-1.1-12.61Z"/>
</svg>