<?xml version="1.0" encoding="UTF-8"?>
<svg id="Layer_1" data-name="Layer 1" xmlns="http://www.w3.org/2000/svg" viewBox="0 0 64 64">
  <defs>
    <style>
      .cls-1 {
        fill: red;
      }

      .cls-1, .cls-2 {
        stroke-width: 0px;
      }

      .cls-2 {
        fill: #fff;
      }
    </style>
  </defs>
  <path class="cls-1" d="m62.66,16.6c-.74-2.76-2.9-4.92-5.66-5.66-4.99-1.34-25-1.34-25-1.34,0,0-20.01,0-25,1.34-2.76.74-4.92,2.9-5.66,5.66C0,21.58,0,32,0,32c0,0,0,10.42,1.34,15.4.74,2.76,2.9,4.92,5.66,5.66,4.99,1.34,25,1.34,25,1.34,0,0,20.01,0,25-1.34,2.76-.74,4.92-2.9,5.66-5.66,1.34-4.99,1.34-15.4,1.34-15.4,0,0,0-10.42-1.34-15.4Z"/>
  <path class="cls-2" d="m25.59,41.6l16.63-9.6-16.63-9.6v19.2Z"/>
</svg>